<svg width="29" height="29" viewBox="0 0 29 29" fill="none" xmlns="http://www.w3.org/2000/svg">
<path d="M8.24223 12.1525C8.24223 12.5059 8.28029 12.7925 8.34758 13.0021C8.42371 13.2119 8.51932 13.4412 8.65276 13.689C8.69966 13.7652 8.71914 13.8413 8.71914 13.9086C8.71914 14.0033 8.6616 14.0989 8.53789 14.1943L7.93682 14.5953C7.85096 14.6519 7.76509 14.6811 7.68919 14.6811C7.59358 14.6811 7.49797 14.6333 7.40236 14.5475C7.27408 14.409 7.15908 14.2588 7.05889 14.0989C6.95271 13.9154 6.85415 13.7275 6.76346 13.5359C6.01973 14.4139 5.08478 14.8529 3.95861 14.8529C3.15771 14.8529 2.51881 14.6236 2.05073 14.1659C1.58333 13.7076 1.34521 13.097 1.34521 12.334C1.34521 11.5233 1.63114 10.8649 2.21363 10.3694C2.79499 9.87281 3.56757 9.62495 4.55085 9.62495C4.87483 9.62495 5.20833 9.65327 5.56132 9.70108C5.91475 9.74888 6.27748 9.82501 6.65901 9.91087V9.21442C6.65901 8.48942 6.50586 7.98419 6.21042 7.68875C5.90456 7.39309 5.38958 7.24967 4.65507 7.24967C4.32134 7.24967 3.9781 7.28773 3.62489 7.3736C3.2742 7.45715 2.92993 7.56564 2.59471 7.69827C2.44155 7.76465 2.32736 7.80271 2.26098 7.8222C2.19392 7.84077 2.14611 7.85052 2.10805 7.85052C1.97438 7.85052 1.908 7.75491 1.908 7.55508V7.08768C1.908 6.93452 1.92657 6.82034 1.97438 6.75327C2.02196 6.68689 2.10805 6.62051 2.24172 6.55322C2.57552 6.38148 2.97609 6.23837 3.44341 6.12388C3.91081 5.99995 4.40721 5.94263 4.93193 5.94263C6.06655 5.94263 6.89668 6.20001 7.43136 6.71521C7.95608 7.23019 8.22252 8.01251 8.22252 9.06217V12.1525H8.24223ZM4.36937 13.6032C4.68361 13.6032 5.00828 13.5456 5.35175 13.4314C5.69521 13.3163 6.00039 13.1068 6.258 12.8208C6.41025 12.6396 6.52534 12.4393 6.58198 12.2103C6.63953 11.981 6.67759 11.705 6.67759 11.3799V10.98C6.38864 10.9088 6.09581 10.8544 5.80057 10.8171C5.50289 10.7797 5.20317 10.7608 4.90315 10.7605C4.26425 10.7605 3.79685 10.8844 3.4817 11.142C3.16746 11.3994 3.01453 11.7614 3.01453 12.2386C3.01453 12.6872 3.12871 13.0209 3.36751 13.25C3.59679 13.4881 3.93052 13.6032 4.36937 13.6032ZM12.0292 14.6333C11.8575 14.6333 11.7433 14.605 11.6672 14.5377C11.5901 14.4802 11.5238 14.3474 11.4662 14.1662L9.22461 6.79202C9.16796 6.60102 9.13851 6.47709 9.13851 6.4098C9.13851 6.25755 9.21486 6.17191 9.36802 6.17191H10.3026C10.4838 6.17191 10.6078 6.20001 10.6751 6.2673C10.7512 6.32394 10.8087 6.45761 10.8654 6.63886L12.4681 12.9545L13.9566 6.63909C14.0037 6.44877 14.0613 6.32416 14.1372 6.26752C14.2142 6.20975 14.3479 6.17169 14.5196 6.17169H15.2824C15.4637 6.17169 15.5878 6.20001 15.664 6.2673C15.7401 6.32394 15.8074 6.45761 15.8452 6.63886L17.3525 13.0306L19.003 6.63909C19.0597 6.44877 19.127 6.32416 19.1934 6.26752C19.2695 6.20975 19.3943 6.17169 19.5658 6.17169H20.4526C20.6057 6.17169 20.6916 6.24781 20.6916 6.4098C20.6916 6.45738 20.6819 6.50541 20.6721 6.56296C20.6624 6.62051 20.6438 6.69663 20.6057 6.80085L18.3066 14.1757C18.249 14.366 18.1827 14.4899 18.1056 14.5472C18.0295 14.605 17.9056 14.6431 17.7436 14.6431H16.9234C16.742 14.6431 16.618 14.6136 16.5419 14.5475C16.4649 14.4802 16.3985 14.3563 16.3604 14.1659L14.8816 8.01251L13.4124 14.1562C13.3648 14.3474 13.3082 14.4714 13.2311 14.5377C13.1548 14.605 13.0213 14.6333 12.8496 14.6333H12.0292ZM24.2874 14.8909C23.7919 14.8909 23.2953 14.8334 22.8184 14.7192C22.3414 14.605 21.9697 14.4802 21.7218 14.3377C21.5686 14.2518 21.4642 14.1564 21.4261 14.0703C21.3884 13.9862 21.3688 13.8952 21.3686 13.803V13.3163C21.3686 13.1165 21.4447 13.0209 21.5883 13.0209C21.6451 13.0209 21.7023 13.0306 21.7599 13.0501C21.8165 13.0687 21.9024 13.1068 21.9977 13.1448C22.3349 13.2931 22.6868 13.4052 23.0476 13.4792C23.4289 13.5554 23.8007 13.5934 24.1829 13.5934C24.784 13.5934 25.2512 13.4881 25.5752 13.2785C25.8998 13.0687 26.0716 12.7633 26.0716 12.3723C26.0716 12.1049 25.9857 11.8863 25.8142 11.7048C25.6425 11.5235 25.3176 11.3613 24.8504 11.2084L23.467 10.7791C22.7706 10.5595 22.2553 10.2358 21.9413 9.80643C21.6264 9.38616 21.4642 8.91876 21.4642 8.42327C21.4642 8.02225 21.5501 7.66911 21.7218 7.36386C21.8919 7.05685 22.1261 6.79004 22.4085 6.58154C22.6944 6.36291 23.0193 6.20001 23.4008 6.08582C23.7824 5.97163 24.1829 5.92383 24.6025 5.92383C24.8123 5.92383 25.0316 5.93357 25.2414 5.96189C25.461 5.99021 25.661 6.02827 25.8618 6.06634C26.0521 6.11414 26.2336 6.16194 26.4053 6.21949C26.577 6.27674 26.7107 6.33398 26.8063 6.39123C26.94 6.46735 27.0354 6.54348 27.092 6.62912C27.1494 6.706 27.178 6.81105 27.1779 6.94427V7.39286C27.1779 7.59314 27.1017 7.69827 26.9583 7.69827C26.8822 7.69827 26.7583 7.65952 26.5965 7.5834C26.0522 7.33554 25.4415 7.21161 24.7645 7.21161C24.221 7.21161 23.7919 7.29748 23.4962 7.47895C23.1997 7.65952 23.0476 7.93661 23.0476 8.32766C23.0476 8.595 23.143 8.82405 23.3333 9.00462C23.5246 9.18587 23.8778 9.36758 24.383 9.52934L25.7378 9.95868C26.4248 10.1782 26.9205 10.4834 27.2159 10.8747C27.5114 11.2659 27.655 11.7145 27.655 12.2103C27.655 12.6208 27.5689 12.9926 27.4072 13.3163C27.2354 13.6412 27.0061 13.9271 26.7107 14.1562C26.415 14.3943 26.0618 14.5661 25.6522 14.6909C25.2229 14.8237 24.7743 14.8909 24.2874 14.8909Z" fill="#252F3E"/>
<path d="M26.7343 16.6179C25.7302 16.6322 24.5448 16.8563 23.6483 17.4861C23.3713 17.6862 23.4191 17.9533 23.7245 17.9152C24.7458 17.7913 26.996 17.5242 27.397 18.0392C27.7981 18.5444 26.9494 20.6718 26.5671 21.6166C26.453 21.9021 26.7008 22.0174 26.9582 21.7978C28.637 20.3861 29.0761 17.4383 28.7326 17.009C28.5611 16.7994 27.7385 16.6034 26.7343 16.6179ZM0.36927 17.1868C0.159247 17.2131 0.0640903 17.4669 0.285895 17.6674C4.02599 21.0436 8.97661 23.0759 14.4717 23.0759C18.3923 23.0759 22.9519 21.8456 26.09 19.5279C26.605 19.1455 26.1573 18.5641 25.6323 18.802C22.1129 20.2905 18.287 21.0155 14.8054 21.0155C9.64474 21.0155 4.65538 19.5943 0.610559 17.2471C0.5222 17.1948 0.439504 17.1782 0.369497 17.1868H0.36927Z" fill="#FF9900"/>
</svg>
