<svg width="34" height="34" viewBox="0 0 48 18" fill="none" xmlns="http://www.w3.org/2000/svg">
<path d="M45.5763 0.824219C45.1992 0.824219 44.8376 0.974009 44.571 1.24064C44.3043 1.50727 44.1545 1.8689 44.1545 2.24597C44.1545 2.62304 44.3043 2.98467 44.571 3.2513C44.8376 3.51793 45.1992 3.66772 45.5763 3.66772C45.9534 3.66772 46.315 3.51793 46.5816 3.2513C46.8482 2.98467 46.998 2.62304 46.998 2.24597C46.998 1.8689 46.8482 1.50727 46.5816 1.24064C46.315 0.974009 45.9534 0.824219 45.5763 0.824219ZM45.5763 1.03572C46.2421 1.03572 46.7905 1.58405 46.7905 2.24793C46.7901 2.48751 46.7187 2.72161 46.5853 2.92066C46.452 3.1197 46.2627 3.27477 46.0412 3.36628C45.8198 3.45778 45.5762 3.48162 45.3413 3.43479C45.1063 3.38795 44.8905 3.27254 44.7211 3.10313C44.5517 2.93371 44.4363 2.7179 44.3894 2.48294C44.3426 2.24797 44.3664 2.0044 44.4579 1.78298C44.5494 1.56156 44.7045 1.37222 44.9036 1.23887C45.1026 1.10552 45.3367 1.03611 45.5763 1.03572ZM15.935 1.13951C14.1725 1.13951 12.8995 2.29884 12.7252 4.35313H11.3642V5.37538H12.7057C12.7115 8.63797 12.7017 11.9045 12.7017 15.1631H14.2253C14.2214 11.9006 14.2201 8.63797 14.2214 5.37538H17.6446C16.3795 6.40155 15.555 8.06418 15.555 9.94613C15.555 13.0658 17.8208 15.594 20.6115 15.594C23.404 15.594 25.6679 13.0658 25.6679 9.94613C25.6679 9.57275 25.6365 9.21045 25.5739 8.85926C26.0752 9.66805 27.0387 10.0597 28.3312 10.6178C29.8548 11.2641 30.7067 11.8261 30.7067 12.7877C30.7067 13.9392 29.6178 14.5404 28.3919 14.5306C27.1954 14.5306 26.2612 14.043 25.2194 13.101V14.9105C25.8559 15.3198 26.839 15.5528 27.9023 15.5528C29.2418 15.547 31.9992 15.0633 31.9992 12.2707C31.9894 10.5943 30.599 9.87368 29.0891 9.21763C27.2502 8.30701 26.5491 8.11509 26.5667 7.07326C26.5667 5.68284 27.777 5.26768 28.7209 5.26768C29.1322 5.26768 29.4847 5.32643 29.8156 5.43609C30.4345 5.67109 30.6381 6.1313 30.8594 6.63264C31.8934 9.05313 32.8843 11.4913 33.8929 13.9235C33.4512 14.9325 32.983 15.9296 32.4887 16.9139L32.4809 16.9335L32.1676 17.5151L31.8151 18.1731H33.3073C33.9575 16.7357 36.7207 10.0088 37.316 8.55964C37.7077 9.60343 38.6575 10.0225 40.1165 10.6531C41.64 11.2974 42.4939 11.8594 42.4939 12.821C42.4939 13.9744 41.405 14.5717 40.1811 14.5619C38.9375 14.5619 37.976 14.0351 36.8872 13.0207L36.7892 12.9404V14.7832C37.3963 15.2924 38.493 15.5861 39.6915 15.5861C41.031 15.5822 43.7864 15.0985 43.7864 12.3059C43.7785 10.6296 42.3862 9.90501 40.8763 9.25093C39.0394 8.33834 38.4088 8.14643 38.4284 7.10263C38.4284 5.71418 39.5622 5.29705 40.5042 5.29705C41.5793 5.29705 42.2589 5.69655 43.2067 6.38393V4.76634C42.4759 4.50191 41.7022 4.37574 40.9252 4.39426C39.1823 4.3923 37.6039 5.02876 37.2044 6.50339L35.0405 11.8575L34.8133 12.5311L34.6155 11.8575C33.6324 9.48984 32.6689 7.11047 31.7054 4.74872C31.0866 4.58422 30.078 4.35314 29.3672 4.36489H29.142C27.1249 4.36097 25.1783 5.21284 25.1783 7.21818C25.1783 7.33437 25.1822 7.44534 25.19 7.55109C24.3832 5.62997 22.6383 4.30026 20.6115 4.30026C20.3673 4.30026 20.1277 4.31788 19.8927 4.35313H14.2057C13.9707 2.91768 14.6425 2.10105 15.651 2.10105C16.918 2.10105 17.4605 2.47705 18.0108 2.9823H18.0656C18.0715 2.50251 18.0695 1.94243 18.0695 1.42738C17.7072 1.25897 17.0786 1.13951 15.935 1.13951ZM0 1.18847V15.1651H1.68417V1.18847H0ZM45.0417 1.46068V2.9588H45.3139V2.35564H45.635L45.8681 2.9588H46.1697L45.8955 2.31255C45.9915 2.26359 46.154 2.21072 46.154 1.94634C46.154 1.50963 45.827 1.46068 45.543 1.46068H45.0417ZM45.3139 1.71918H45.6155C45.778 1.71918 45.8681 1.78576 45.8681 1.91893C45.8681 2.05209 45.7662 2.11476 45.639 2.11476H45.3139V1.71918ZM8.17017 4.3218C6.31954 4.3218 5.54012 4.97784 4.92325 5.63976C4.89525 5.67921 4.87223 5.72196 4.85471 5.76705H4.83708V5.68284L4.8175 4.4628H3.34092V15.1651H4.85862V7.33763C4.90367 6.37805 6.25687 5.43022 7.31046 5.43022C8.57946 5.43022 9.61737 6.28405 9.61737 7.46493V15.1651H11.1351L11.1312 6.76776C11.0861 5.82188 9.93854 4.31984 8.16821 4.31984M20.4724 5.40868C22.3798 5.37539 23.9641 7.40813 24.0072 9.94809C24.0503 12.4881 22.5385 14.5737 20.6291 14.6089C18.7217 14.6403 17.1393 12.6114 17.0962 10.0715C17.0532 7.53151 18.565 5.44197 20.4724 5.40868Z" fill="#007CC3"/>
</svg>
