<svg width="34" height="34" viewBox="0 -10 23 39" fill="none" xmlns="http://www.w3.org/2000/svg">
<path d="M26 2.58527C25.0264 3.01658 23.9937 3.29969 22.9363 3.42519C24.0377 2.76503 24.8834 1.71965 25.2816 0.474086C24.2346 1.09543 23.089 1.53321 21.8944 1.7685C20.9214 0.731852 19.5351 0.0839844 18.0008 0.0839844C15.0549 0.0839844 12.6665 2.47233 12.6665 5.41805C12.6665 5.83618 12.7137 6.24324 12.8046 6.63375C8.37139 6.41123 4.44092 4.28766 1.80995 1.06041C1.35088 1.84823 1.08784 2.76463 1.08784 3.74206C1.08784 5.59273 2.02962 7.22535 3.46084 8.18197C2.61376 8.15544 1.78532 7.92665 1.04467 7.5147C1.04437 7.53705 1.04437 7.55939 1.04437 7.58184C1.04437 10.1663 2.88305 12.3223 5.32319 12.8123C4.5377 13.0259 3.71376 13.0572 2.91434 12.9037C3.59308 15.0229 5.56309 16.565 7.8972 16.6082C6.07161 18.0388 3.77152 18.8916 1.27248 18.8916C0.841852 18.8916 0.41732 18.8663 0 18.8171C2.36062 20.3306 5.16445 21.2137 8.1768 21.2137C17.9884 21.2137 23.3537 13.0855 23.3537 6.03666C23.3537 5.8053 23.3486 5.57527 23.3383 5.34655C24.3825 4.59162 25.2839 3.65656 26 2.58527Z" fill="#55ACEE"/>
</svg>
